<?xml version="1.0" encoding="utf-8"?>
<!-- Generator: Adobe Illustrator 22.1.0, SVG Export Plug-In . SVG Version: 6.00 Build 0)  -->
<svg version="1.1" id="Layer_1" xmlns="http://www.w3.org/2000/svg" xmlns:xlink="http://www.w3.org/1999/xlink" x="0px" y="0px"
	 viewBox="0 0 727.5 169.5" style="enable-background:new 0 0 727.5 169.5;" xml:space="preserve">
<style type="text/css">
	.st0{fill:#FFFFFF;}
	.st1{fill:none;stroke:#FFFFFF;stroke-miterlimit:10;}
</style>
<path class="st0" d="M67.7,81.3c5.3-1.6,10.2-4.6,14.8-7.4c24.4-15.3,91.5-37.1,148.9-24.1c47.6,15.3,92.3,32.1,137.4,56
	c26.6,14.4,57.9,26.8,87.1,34.6c21.3,5.7,65.3,22.6,88,18.1c-28-2.5-53.8-13.3-77.2-23.7c27,6.9,54.8,14.8,84.7,19.1
	c29.6,4.7,63.3,2.5,90.9-9.3c-54.8,21.5-113.5,4.6-158.9-13.1c-47.1-18.6-91.8-41.3-131.9-69.4c50.2,22.8,107.8,49,167.8,69.2
	c30,9.4,63,16.4,94.7,10.8c31.6-5.5,58-21.7,77.6-40.8c6.1-5.7,12-13.2,16.1-19.3c-17.2,21.5-40,40.6-68.9,51.1
	c-28.9,11.1-62.7,9.8-92.8,1.4c-60.3-17.1-117.1-46.2-168.3-69.1c-47.9-21.2-92.2-45.7-151.8-54.7c-15.8-2.6-32.1-3.8-48-3.1
	c-32.7,1.1-64.9,8.3-94.2,20.1c-26.5,9.6-70.4,33.1-69.5,54.8c7.8-3.5,15-10,22.9-12.5c-2,2.9-4.2,6.4-6.9,9.1
	c3.1-1.6,6.8-2.8,9.1-5.2c-1.9,2.1-3.8,4.4-3.9,6.6c3.9-1.4,7.9-6.6,10.4-9c1.4-1.4,7.6-9.3,10.2-9.6c-4.5,6.1-10.6,12.6-13.3,18.9
	c2.1-0.9,3.9-2.1,6-2.7c-1.7,2.6-6,5.7-6.2,8.3c4.8-2.8,8.6-6,13.8-8.3c4.2-1.9,8.1-3.3,11.8-6c-4.2,3.6-10.1,7.7-12,12.1
	c2.5-0.4,4.6-1.8,6.7-3.2L62.8,82c1-0.5,2.5-0.7,3.5-1.2c0.2,0.5,0.7,0.8,0.7,1.4l-0.4-1.1"/>
<line class="st1" x1="355.6" y1="82.8" x2="355.6" y2="82.8"/>
<line class="st1" x1="352" y1="73.9" x2="352" y2="73.9"/>
<path class="st1" d="M381.5,72.1c-0.1-0.2,68.6,28.8,150.5,50.7c40.7,11.1,87.6,11.4,121.5-8.8c34.1-18.6,57.7-45.3,68-67.1"/>
<path class="st1" d="M502.9,130.1c0.1-0.5,26.2,10.9,67.2,14.7c41.9,5.6,94.7-16.1,123.1-51.6"/>
</svg>
