<?xml version="1.0" encoding="utf-8"?>
<!-- Generator: Adobe Illustrator 22.1.0, SVG Export Plug-In . SVG Version: 6.00 Build 0)  -->
<svg version="1.1" id="Layer_1" xmlns="http://www.w3.org/2000/svg" xmlns:xlink="http://www.w3.org/1999/xlink" x="0px" y="0px"
	 viewBox="0 0 30 6.5" style="enable-background:new 0 0 30 6.5;" xml:space="preserve">
<style type="text/css">
	.st0{fill:none;stroke:#3A518F;stroke-width:0;}
	.st1{fill:#3A518F;}
</style>
<line class="st0" x1="12.4" y1="1.7" x2="12.4" y2="1.7"/>
<line class="st0" x1="12" y1="1.4" x2="12" y2="1.4"/>
<path class="st1" d="M2.3,3.1c0.2-0.1,0.4-0.2,0.6-0.3c1-0.6,3.9-1.6,6.3-1c2,0.6,3.9,1.4,5.8,2.4c1.1,0.6,2.5,1.1,3.7,1.5
	c0.9,0.2,2.8,1,3.7,0.8c-1.2-0.1-2.3-0.6-3.3-1c1.1,0.3,2.3,0.6,3.6,0.8c1.3,0.2,2.7,0.1,3.9-0.4c-2.3,0.9-4.8,0.2-6.7-0.6
	c-2-0.8-3.9-1.8-5.6-2.9c2.1,1,4.6,2.1,7.1,2.9c1.3,0.4,2.7,0.7,4,0.5c1.3-0.2,2.5-0.9,3.3-1.7c0.3-0.2,0.5-0.6,0.7-0.8
	c-0.7,0.9-1.7,1.7-2.9,2.2c-1.2,0.5-2.7,0.4-3.9,0.1c-2.6-0.7-5-2-7.1-2.9c-2-0.9-3.9-1.9-6.4-2.3C8.3,0,7.6,0,6.9,0
	c-1.4,0-2.8,0.4-4,0.9C1.8,1.3,0,2.3,0,3.2C0.3,3,0.6,2.8,1,2.7C0.9,2.8,0.8,2.9,0.7,3C0.8,3,1,2.9,1.1,2.8C1,2.9,0.9,3,0.9,3.1
	C1.1,3,1.2,2.8,1.3,2.7c0.1-0.1,0.3-0.4,0.4-0.4C1.6,2.6,1.3,2.8,1.2,3.1C1.3,3.1,1.4,3,1.5,3C1.4,3.1,1.2,3.2,1.2,3.3
	C1.4,3.2,1.6,3.1,1.8,3C2,2.9,2.1,2.9,2.3,2.7C2.1,2.9,1.9,3.1,1.8,3.3c0.1,0,0.2-0.1,0.3-0.1l0,0.1C2.1,3.1,2.2,3.1,2.3,3.1
	C2.2,3.1,2.2,3.2,2.3,3.1L2.3,3.1"/>
<line class="st1" x1="13" y1="3.1" x2="13" y2="3.1"/>
<path class="st1" d="M12.1,1.9c0.2-0.1,0.5-0.3,0.8-0.3"/>
<path class="st0" d="M15.6,2.8c0,0,2.9,1.2,6.4,2.2c1.7,0.5,3.7,0.5,5.2-0.4c1.4-0.8,2.4-1.9,2.9-2.8"/>
<path class="st0" d="M20.7,5.2c0,0,1.1,0.5,2.8,0.6c1.8,0.2,4-0.7,5.2-2.2"/>
</svg>
