<?xml version="1.0" encoding="utf-8"?>
<!-- Generator: Adobe Illustrator 22.1.0, SVG Export Plug-In . SVG Version: 6.00 Build 0)  -->
<svg version="1.1" id="Layer_1" xmlns="http://www.w3.org/2000/svg" xmlns:xlink="http://www.w3.org/1999/xlink" x="0px" y="0px"
	 viewBox="0 0 1920 700" style="enable-background:new 0 0 1920 700;" xml:space="preserve">
<style type="text/css">
	.st0{opacity:0.1;}
	.st1{fill:none;}
	.st2{fill:#FFFFFF;}
</style>
<g class="st0">
	<line class="st1" x1="938.8" y1="338.1" x2="938.8" y2="338.1"/>
	<path class="st2" d="M577.1,347.5c6.8-2.1,12.9-5.9,18.8-9.5c31.1-19.5,116.4-47.2,189.5-30.7c60.5,19.5,117.5,40.9,174.9,71.2
		c33.8,18.3,73.7,34.1,110.9,44c27.1,7.3,83.1,28.8,112,23.1c-35.6-3.2-68.5-16.9-98.2-30.2c34.4,8.8,69.7,18.9,107.8,24.3
		c37.7,6,80.6,3.2,115.7-11.8c-69.8,27.4-144.4,5.9-202.3-16.7c-59.9-23.6-116.8-52.6-167.9-88.3c63.9,29,137.1,62.3,213.5,88
		c38.2,11.9,80.1,20.9,120.5,13.7c40.3-7,73.8-27.6,98.7-52c7.7-7.2,15.3-16.8,20.4-24.5c-21.9,27.4-50.9,51.7-87.6,65
		c-36.7,14.2-79.7,12.5-118.1,1.8c-76.7-21.8-149-58.7-214.2-88c-61-27-117.4-58.2-193.2-69.6c-20.1-3.4-40.8-4.9-61-3.9
		c-41.6,1.4-82.5,10.6-119.8,25.6c-33.7,12.3-89.6,42.1-88.5,69.8c9.9-4.5,19.1-12.8,29.2-15.9c-2.5,3.7-5.4,8.2-8.8,11.6
		c3.9-2.1,8.6-3.6,11.6-6.7c-2.5,2.7-4.9,5.6-4.9,8.4c5-1.8,10-8.5,13.2-11.5c1.8-1.8,9.6-11.8,13-12.3c-5.7,7.8-13.5,16-16.9,24.1
		c2.6-1.1,4.9-2.7,7.7-3.4c-2.2,3.3-7.7,7.2-7.9,10.6c6.1-3.5,11-7.6,17.6-10.6c5.4-2.5,10.4-4.2,15-7.6
		c-5.4,4.6-12.9,9.8-15.3,15.4c3.2-0.4,5.9-2.3,8.5-4.1l-0.1,1.5c1.2-0.7,3.2-0.9,4.5-1.6c0.3,0.6,0.9,1,0.9,1.8l-0.5-1.3"/>
	<line class="st1" x1="943.5" y1="349.3" x2="943.5" y2="349.3"/>
	<path class="st1" d="M976.4,335.8c-0.2-0.3,87.3,36.6,191.5,64.5c51.8,14.1,111.5,14.4,154.5-11.2c43.3-23.7,73.5-57.6,86.6-85.4"
		/>
	<path class="st1" d="M1130.8,409.6c0.1-0.6,33.4,13.9,85.5,18.7c53.4,7.1,120.6-20.4,156.6-65.6"/>
</g>
</svg>
