<?xml version="1.0" encoding="utf-8"?>
<!-- Generator: Adobe Illustrator 22.1.0, SVG Export Plug-In . SVG Version: 6.00 Build 0)  -->
<svg version="1.1" id="Layer_1" xmlns="http://www.w3.org/2000/svg" xmlns:xlink="http://www.w3.org/1999/xlink" x="0px" y="0px"
	 viewBox="0 0 1920 700" style="enable-background:new 0 0 1920 700;" xml:space="preserve">
<style type="text/css">
	.st0{fill:#ffffff; opacity:0.030;}
	.st1{fill:none;stroke:#ffffff;stroke-width:0;}
	.st2{fill:#ffffff;}
</style>
<g class="st0">
	<line class="st1" x1="905.1" y1="318.3" x2="905.1" y2="318.3"/>
	<path d="M-61.6,343.3c18.1-5.5,34.6-15.7,50.2-25.3c83.1-52.1,311.1-126.2,506.5-82C656.9,288.1,809,345.3,962.4,426.4
		c90.3,49,196.9,91.2,296.3,117.7c72.5,19.5,222.1,77,299.2,61.6c-95.1-8.6-183-45.1-262.4-80.7c91.8,23.5,186.3,50.4,288.1,65
		c100.7,16,215.3,8.5,309.2-31.6c-186.4,73.2-385.9,15.8-540.5-44.6c-160.1-63.2-312.1-140.6-448.6-236.1
		c170.7,77.5,366.5,166.6,570.6,235.3c102.1,31.9,214.1,55.8,322,36.7c107.6-18.8,197.3-73.8,263.8-138.9
		c20.6-19.3,40.9-45,54.6-65.6c-58.6,73.2-135.9,138.1-234.2,173.8c-98.2,37.9-213.1,33.3-315.7,4.9
		c-205-58.3-398.1-157-572.4-235.1c-162.9-72.1-313.7-155.4-516.2-186c-53.8-9-109-13-163.1-10.4C201.8,96.1,92.5,120.6-7.1,160.9
		c-90,32.8-239.4,112.4-236.4,186.5c26.4-11.9,51-34.1,78-42.5c-6.8,10-14.3,21.8-23.5,30.9c10.4-5.6,23-9.5,31.1-17.8
		c-6.6,7.1-13,15-13.1,22.4c13.3-4.7,26.7-22.6,35.2-30.7c4.8-4.8,25.7-31.6,34.7-32.8c-15.3,20.8-36,42.7-45.2,64.3
		c7-3,13.2-7.3,20.5-9.1c-5.8,8.9-20.5,19.3-21.2,28.2c16.2-9.4,29.3-20.3,47-28.2c14.3-6.6,27.7-11.2,40.1-20.3
		c-14.3,12.2-34.4,26.1-40.9,41.1c8.5-1.2,15.7-6.2,22.8-11l-0.2,4c3.3-1.8,8.5-2.3,11.9-4.2c0.8,1.6,2.3,2.8,2.3,4.8l-1.3-3.6"/>
	<line class="st2" x1="917.4" y1="348.3" x2="917.4" y2="348.3"/>
	<path class="st1" d="M1005.5,312.2c-0.5-0.7,233.3,97.9,511.7,172.5c138.4,37.8,297.9,38.6,413-29.9
		c115.8-63.3,196.3-153.9,231.4-228.2"/>
	<path class="st1" d="M1418.2,509.3c0.4-1.6,89.2,37.1,228.4,49.9c142.6,19.1,322.2-54.6,418.5-175.3"/>
</g>
</svg>
