<?xml version="1.0" encoding="utf-8"?>
<!-- Generator: Adobe Illustrator 22.1.0, SVG Export Plug-In . SVG Version: 6.00 Build 0)  -->
<svg version="1.1" id="Layer_1" xmlns="http://www.w3.org/2000/svg" xmlns:xlink="http://www.w3.org/1999/xlink" x="0px" y="0px"
	 viewBox="0 0 150 168.7" style="enable-background:new 0 0 150 168.7;" xml:space="preserve">
<style type="text/css">
	.st0{fill:#c0c4da;}
</style>
<g>
	<polygon class="st0" points="53.7,145.1 50.1,141.6 50.1,150.5 53.7,150.5 	"/>
	<polygon class="st0" points="50.1,131.5 53.7,127.8 53.7,88.2 50.1,88.2 	"/>
	<path class="st0" d="M59,68l4.5,7.1v23c1-1.1,2.2-2,3.6-2.7V74.1l-5.6-8.9l-19-8.1V52c5-3.5,8.3-9.8,8.3-17.1
		c0-11-7.5-19.9-16.7-19.9s-16.7,8.9-16.7,19.9c0,6.9,2.9,12.9,7.4,16.5v5.8l-19,8.1L0,74.1v59.6l3,6.7h10.3v10.1h3.6V88.2h-3.6
		v48.6h-8l-1.7-3.9V75.1L8,68l20.1-8.5v-6c1.8,0.8,3.7,1.2,5.8,1.2c1.7,0,3.3-0.3,4.9-0.9v5.6L59,68z M33.9,51.2
		c-7.3,0-13.2-7.3-13.2-16.3c0-2.3,0.4-4.4,1.1-6.4c6-0.3,10-4.7,12.1-7.7c2.1,3,6.1,7.4,12.2,7.7c0.7,2,1.1,4.1,1.1,6.4
		c0,6.8-3.4,12.7-8.3,15.1l0,0l0,0C37.3,50.8,35.7,51.2,33.9,51.2z"/>
	<path class="st0" d="M144.4,65.2l-19-8.1v-5.8c4.5-3.6,7.4-9.6,7.4-16.5c0-7.4-3.4-13.9-8.5-17.3c1.1-1.6,1.7-3.6,1.7-5.7
		c0-5.6-4.6-10.2-10.2-10.2s-10.2,4.6-10.2,10.2c0,2.2,0.7,4.3,1.9,5.9c-4.9,3.5-8.1,9.8-8.1,17s3.2,13.4,8,16.9v5.3l-19,8.1
		l-5.6,8.9v21.7c1.3,0.8,2.5,1.9,3.6,3.1V75.1l4.5-7.1l20.1-8.5v-5.7c1.6,0.6,3.4,1,5.2,1c2,0,4-0.4,5.8-1.2v6l20.1,8.5l4.5,7.1V133
		l-1.7,3.9h-5.5c-0.7-3.8-1.6-6.1-2.5-8.1c-0.9-2.2-1.6-3.8-1.6-6.9c0-13.2,4.9-26.8,4.9-27l0.1-0.3v-13h-3.6V94
		c-0.8,2.2-5,15-5,27.9c0,3.8,0.9,6,1.8,8.3c1.4,3.4,3.2,7.7,3.2,20.5h3.6c0-4.2-0.2-7.5-0.5-10.2h7.3l3-6.7V74.1L144.4,65.2z
		 M116.1,51.2c-7.3,0-13.2-7.3-13.2-16.3c0-1.3,0.1-2.6,0.4-3.8c11.9-0.5,19.1-5.7,21.8-8.2c2.6,3,4.2,7.2,4.2,12
		C129.1,43.9,123.3,51.2,116.1,51.2z"/>
	<path class="st0" d="M93.8,147.1l0.9,0.9l0.6,2.7H96c0-2.2,0.1-4.2,0.2-5.9L93.8,147.1z"/>
	<path class="st0" d="M96,81.6h-3.6v13.1l0.1,0.3c0,0.1,4.9,13.8,4.9,27c0,2.8-0.6,4.4-1.3,6.3l2.7,2.8c0.1-0.3,0.2-0.6,0.4-0.9
		c0.9-2.3,1.8-4.4,1.8-8.3c0-12.8-4.3-25.7-5-27.9V81.6z"/>
</g>
<path class="st0" d="M86.9,135.8l6.7,7l3.9-3.9l-0.7-5.5l-14.4-15.1c2.7-2.3,4.4-5.7,4.4-9.4c0-6.8-5.5-12.3-12.3-12.3
	s-12.3,5.5-12.3,12.3c0,3.9,1.8,7.4,4.7,9.6l-14.3,14.9l-0.7,5.5l3.9,3.9l6.7-7v8.8l0,0l-4.9,4.9l-0.8,3.6l5,11.2L66,167l4.5-1.7
	l1.6-5.1l-3-7.1l1-1h9.1l1,1l-3,7.1l1.6,5.1l4.5,1.7l4.2-2.7l5-11.2l-0.8-3.6l-4.9-4.9l0,0v-8.8L86.9,135.8L86.9,135.8z M64.9,108.9
	c0-5.3,4.3-9.6,9.6-9.6s9.6,4.3,9.6,9.6s-4.3,9.6-9.6,9.6c-0.8,0-1.5-0.1-2.2-0.3c-0.4-0.1-0.8-0.2-1.2-0.4
	C67.5,116.5,64.9,113,64.9,108.9z M55.8,139l-1-1l0.4-3.3l14-14.7c0.3,0.1,0.6,0.3,0.9,0.4c0.5,0.2,1.1,0.4,1.7,0.5
	c0.1,0,0.1,0,0.2,0c0,0,0,0,0.1,0c1.1,0.2,2,0.3,2.6,0.3l0,0l0,0c1.2,0,3.3-0.3,5.5-1.3l14,14.7l0.4,3.3l-1,1l-9.4-9.8v9.8h-19v-9.8
	L55.8,139z M69.3,160.4l-0.9,2.9l-2,0.8l-2.4-1.5l-4.3-9.6l0.4-2l4.4-4.4l3.8,3.8l-2.3,2.3L69.3,160.4z M71.2,149.5l-6-6v-1.8h19
	v1.8l-6,6H71.2z M89.3,150.9l0.4,2l-4.3,9.6L83,164l-2-0.8l-0.9-2.9l3.3-7.8l-2.3-2.2l3.8-3.8L89.3,150.9z"/>
</svg>
