<?xml version="1.0" encoding="utf-8"?>
<!-- Generator: Adobe Illustrator 22.1.0, SVG Export Plug-In . SVG Version: 6.00 Build 0)  -->
<svg version="1.1" id="Layer_1" xmlns="http://www.w3.org/2000/svg" xmlns:xlink="http://www.w3.org/1999/xlink" x="0px" y="0px"
	 viewBox="0 0 150 132.5" style="enable-background:new 0 0 150 132.5;" xml:space="preserve">
<style type="text/css">
	.st0{fill:#c0c4da;}
</style>
<path class="st0" d="M3,61.1l3.6-5.8l16.5-7v-4.9c1.4,0.6,3,1,4.7,1c1.4,0,2.7-0.2,4-0.7v4.6l16.5,7l3.7,5.8V100h2.9V60.3l-4.6-7.3
	l-15.6-6.6v-4.1c4.1-2.8,6.8-8,6.8-14c0-8.9-6.1-16.2-13.7-16.2s-13.7,7.2-13.7,16.2c0,5.6,2.4,10.6,6.1,13.5v4.7L4.7,53.1l-4.6,7.2
	v48.6l2.9-2V61.1z M17,28c0-1.8,0.3-3.6,0.9-5.2c4.9-0.3,8.2-3.8,9.9-6.3c1.6,2.5,4.9,6.1,9.9,6.3c0.6,1.6,0.9,3.3,0.9,5.2
	c0,5.6-2.8,10.4-6.8,12.4c-1.2,0.7-2.6,1-4,1C21.9,41.6,17.1,35.5,17,28z M60.4,82.3l2.1-3.3l10.3-4.4v-2.6c0.8,0.3,1.6,0.4,2.4,0.4
	c0.6,0,1.3,0,1.9-0.2v2.4L87.4,79l2.1,3.3V100h2.9V81.3l-3-4.8l-9.4-4v-1.9c2.5-1.9,4.2-5.1,4.2-8.9c0-5.9-4-10.6-9-10.6
	s-9,4.8-9,10.6c0,3.6,1.4,6.7,3.7,8.6v2.3l-9.4,4l-3,4.8v18.6h2.9V82.3z M69.1,61.8c0-1,0.2-2,0.5-2.9c1.4-0.7,3.4-2.2,5.6-2.2
	s4.2,1.6,5.6,2.2c0.3,0.9,0.5,1.9,0.5,2.9c0,4.3-2.7,7.7-6.1,7.7C71.9,69.6,69.1,66.1,69.1,61.8z M64.3,100.1V88.8h2.9v11.3H64.3z
	 M82.8,100.1V88.8h2.9v11.3H82.8z M11,101.6V71.8h2.9v27.7L11,101.6z M141.8,77.3c0,0.2-4,11.3-4,22.1c0,0.5,0.1,1,0.1,1.4l-3-2
	c0.1-10.3,3.5-20.5,4.1-22.2V66.4h2.9v10.7L141.8,77.3z M123.3,97.1v11.2l-92.2,17l0.3,2.9h91.9v2.1l2.3,1.2l24.4-16.6v-2.4
	l-24.4-16.6L123.3,97.1z M126.2,99.8l20.4,13.8l-20.4,13.8v-0.8l-1.5-1.5H47.3l77.7-14.3l1.2-1.4V99.8z M41.1,100.1V71.8H44v28.2
	h-2.9V100.1z M145.4,53.1l-15.5-6.6v-4.7c3.7-2.9,6.1-7.9,6.1-13.5c0-6-2.8-11.3-7-14.1c0.9-1.3,1.4-2.9,1.4-4.6
	c0-4.6-3.8-8.4-8.4-8.4s-8.4,3.8-8.4,8.4c0,1.9,0.6,3.5,1.6,4.9c-4,2.8-6.7,8-6.7,13.9c0,5.8,2.6,10.9,6.5,13.8v4.3l-15.5,6.6
	l-4.6,7.2v39.7h2.9V61.1l3.7-5.8l16.5-7v-4.7c1.3,0.5,2.7,0.8,4.2,0.8c1.6,0,3.2-0.4,4.7-1v4.9l16.5,7l3.7,5.8v45.8l2.9,2V60.3
	L145.4,53.1z M122.2,41.6c-6,0-10.8-5.9-10.8-13.3c0-1.1,0.1-2.1,0.3-3.1c9.7-0.4,15.6-4.7,17.8-6.7c2.2,2.5,3.5,5.9,3.5,9.8
	C133,35.5,128.1,41.6,122.2,41.6z M118.6,102.8H26.7v-5.7l-2.3-1.2L0,112.3v2.4l24.4,16.6l2.3-1.2v-7.5l92.2-17L118.6,102.8z
	 M25,120.1l-1.2,1.4v6L3.4,113.6l20.4-13.9v4.5l1.5,1.5h77.4L25,120.1z M105.8,66.4v10.2c0.6,1.8,4.1,12.3,4.1,22.8
	c0,0.2,0,0.4,0,0.6H107c0-0.2,0-0.4,0-0.6c0-10.8-4-22-4-22.1l-0.1-0.2V66.4H105.8z"/>
</svg>
