<?xml version="1.0" encoding="utf-8"?>
<!-- Generator: Adobe Illustrator 22.1.0, SVG Export Plug-In . SVG Version: 6.00 Build 0)  -->
<svg version="1.1" id="Layer_1" xmlns="http://www.w3.org/2000/svg" xmlns:xlink="http://www.w3.org/1999/xlink" x="0px" y="0px"
	 viewBox="0 0 150 180" style="enable-background:new 0 0 150 180;" xml:space="preserve">
<style type="text/css">
	.st0{fill:#c0c4da;}
</style>
<g>
	<path class="st0" d="M144.4,65.6l-19-8.1v-5.7c4.5-3.6,7.4-9.6,7.4-16.5c0-7.4-3.4-13.9-8.5-17.3c1.1-1.6,1.7-3.6,1.7-5.7
		c0-5.6-4.6-10.2-10.2-10.2s-10.2,4.6-10.2,10.2c0,2.2,0.7,4.3,1.9,5.9c-4.9,3.5-8.1,9.8-8.1,17s3.2,13.4,8,16.9v5.3l-19,8.1
		l-5.6,8.9v3H67v-3l-5.6-8.9l-19-8.1v-5.1c5-3.5,8.3-9.8,8.3-17.1c0-11-7.5-19.9-16.7-19.9s-16.7,8.9-16.7,19.9
		c0,6.9,2.9,12.9,7.4,16.5v5.8l-19,8.1L0,74.4V134l3,6.7h10.3v10.1h3.6V88.6h-3.6v48.6h-8l-1.7-3.9V75.4L8,68.3l20.1-8.5v-6
		c1.8,0.8,3.7,1.2,5.8,1.2c1.7,0,3.3-0.3,4.9-0.9v5.6L59,68.3l4.5,7.1v2h-17c-4.7,0-8.6,3.7-8.9,8.3l0,0v81.5H25.2v1.8
		c0,4.9,4,8.9,8.9,8.9h66.7c4.9,0,8.9-4,8.9-8.9V93.4c1.5,1.1,3.3,1.8,5.3,1.8c4.9,0,8.9-4,8.9-8.9s-4-8.9-8.9-8.9H86.3v-2l4.5-7.1
		l20.1-8.5v-5.7c1.6,0.6,3.4,1,5.2,1c2,0,4-0.4,5.8-1.2v6l20.1,8.5l4.5,7.1v57.8l-1.7,3.9h-5.5c-0.7-3.8-1.6-6.1-2.5-8.1
		c-0.9-2.2-1.6-3.8-1.6-6.9c0-13.2,4.9-26.8,4.9-27l0.1-0.3v-13h-3.6v12.4c-0.8,2.2-5,15-5,27.9c0,3.8,0.9,6,1.8,8.3
		c1.4,3.4,3.2,7.7,3.2,20.5h3.6c0-4.2-0.2-7.5-0.5-10.2h7.3l3-6.7V74.4L144.4,65.6z M38.9,50.3L38.9,50.3L38.9,50.3
		c-1.6,0.8-3.2,1.2-4.9,1.2c-7.3,0-13.2-7.3-13.2-16.3c0-2.3,0.4-4.4,1.1-6.4c6-0.3,10-4.7,12.1-7.7c2.1,3,6.1,7.4,12.2,7.7
		c0.7,2,1.1,4.1,1.1,6.4C47.1,42,43.7,48,38.9,50.3z M29.1,170.9h8.6h1.8h52.6c0.3,1.3,0.8,2.5,1.6,3.6H34.1
		C31.8,174.4,29.8,172.9,29.1,170.9z M100.8,174.4c-2.9,0-5.3-2.4-5.3-5.3v-1.8H41.2v-81c0-2.9,2.4-5.3,5.3-5.3h61.4
		c-1,1.3-1.6,3-1.8,4.7l0,0V169C106.1,172.1,103.7,174.4,100.8,174.4z M120.4,86.3c0,2.9-2.4,5.3-5.3,5.3s-5.3-2.4-5.3-5.3
		s2.4-5.3,5.3-5.3C118,81.1,120.4,83.4,120.4,86.3z M116.1,51.5c-7.3,0-13.2-7.3-13.2-16.3c0-1.3,0.1-2.6,0.4-3.8
		c11.9-0.5,19.1-5.7,21.8-8.2c2.6,3,4.2,7.2,4.2,12C129.2,44.3,123.3,51.5,116.1,51.5z"/>
	<rect x="51" y="92.3" class="st0" width="23.4" height="3.6"/>
	<rect x="51" y="102.7" class="st0" width="44.2" height="3.6"/>
	<rect x="51" y="112.4" class="st0" width="44.2" height="3.6"/>
	<rect x="51" y="122.6" class="st0" width="44.2" height="3.6"/>
	<rect x="51" y="132.4" class="st0" width="25.8" height="3.6"/>
	<rect x="51" y="142.1" class="st0" width="23.4" height="3.6"/>
	<rect x="51" y="152.1" class="st0" width="25.8" height="3.6"/>
	<path class="st0" d="M88.9,131.4c-4.7,0-8.6,3.9-8.6,8.6c0,2,0.7,3.8,1.8,5.2v14.2l6.8-4.8l6.8,4.8v-14.2c1.1-1.4,1.8-3.3,1.8-5.2
		C97.5,135.3,93.7,131.4,88.9,131.4z M88.9,134.9c2.8,0,5,2.3,5,5s-2.3,5-5,5s-5-2.3-5-5S86.2,134.9,88.9,134.9z M88.9,150.3
		l-3.3,2.3v-4.6c1,0.4,2.1,0.6,3.3,0.6c1.2,0,2.3-0.2,3.3-0.6v4.6L88.9,150.3z"/>
</g>
</svg>
