<?xml version="1.0" encoding="utf-8"?>
<!-- Generator: Adobe Illustrator 22.1.0, SVG Export Plug-In . SVG Version: 6.00 Build 0)  -->
<svg version="1.1" id="Layer_1" xmlns="http://www.w3.org/2000/svg" xmlns:xlink="http://www.w3.org/1999/xlink" x="0px" y="0px"
	 viewBox="0 0 50 50" style="enable-background:new 0 0 50 50;" xml:space="preserve">
<style>
	.st0 {fill:#c0c4da;}
	}
</style>
<path class="st0" d="M50,25c0,13.8-11.2,25-25,25S0,38.8,0,25C0,11.2,11.2,0,25,0S50,11.2,50,25z M25.7,8.3c-5.5,0-9,2.3-11.7,6.4
	c-0.4,0.5-0.2,1.3,0.3,1.6l3.5,2.7c0.5,0.4,1.3,0.3,1.7-0.2c1.8-2.3,3-3.6,5.8-3.6c2.1,0,4.6,1.3,4.6,3.3c0,1.5-1.2,2.3-3.3,3.4
	c-2.4,1.3-5.5,3-5.5,7.1v0.4c0,0.7,0.5,1.2,1.2,1.2h5.6c0.7,0,1.2-0.5,1.2-1.2v-0.1c0-2.9,8.4-3,8.4-10.8
	C37.4,12.7,31.4,8.3,25.7,8.3z M25,33.3c-2.6,0-4.6,2.1-4.6,4.6c0,2.6,2.1,4.6,4.6,4.6s4.6-2.1,4.6-4.6C29.6,35.3,27.6,33.3,25,33.3
	z"/>
</svg>
