<?xml version="1.0" encoding="utf-8"?>
<!-- Generator: Adobe Illustrator 22.1.0, SVG Export Plug-In . SVG Version: 6.00 Build 0)  -->
<svg version="1.1" id="Layer_1" xmlns="http://www.w3.org/2000/svg" xmlns:xlink="http://www.w3.org/1999/xlink" x="0px" y="0px"
	 viewBox="0 0 150 156" style="enable-background:new 0 0 150 156;" xml:space="preserve">
<style type="text/css">
	.st0{fill:#c0c4da;}
</style>
<path class="st0" d="M136.9,1.6H32.1C25.2,1.6,19.5,7,19,13.8v0.5V139H0v2.2c0,7.2,5.9,13.1,13.1,13.1h102c7.2,0,13.1-5.9,13.1-13.1
	V24.6l0.8,0.6c2.3,1.7,5,2.6,7.9,2.6c7.2,0,13.1-5.9,13.1-13.1S144.1,1.6,136.9,1.6z M13.1,149.9c-3.7,0-6.9-2.3-8.2-5.8l-0.2-0.7
	h97.5l0.1,0.4c0.4,1.9,1.2,3.7,2.4,5.2l0.6,0.8H13.1V149.9z M126.4,6.9c-1.5,2-2.4,4.4-2.6,7v0.5v126.9c0,4.8-3.9,8.7-8.7,8.7
	s-8.7-3.9-8.7-8.7V139h-83V14.7c0-4.8,3.9-8.7,8.7-8.7H127L126.4,6.9z M136.9,23.4c-4.8,0-8.7-3.9-8.7-8.7s3.9-8.7,8.7-8.7
	s8.7,3.9,8.7,8.7S141.7,23.4,136.9,23.4z M39.5,24.3h34.8v4.4H39.5V24.3z M39.5,40.2h66.6v4.4H39.5V40.2z M39.5,55.1h66.6v4.4H39.5
	V55.1z M39.5,70.6h66.6V75H39.5V70.6z M39.5,85.5h38.4v4.4H39.5V85.5z M39.5,100.5h34.8v4.4H39.5V100.5z M39.5,115.9h38.4v4.4H39.5
	V115.9z M97,118.6l9.9,7v-20.9l0.1-0.1c1.7-2.2,2.6-4.9,2.6-7.7c0-7-5.7-12.6-12.6-12.6c-7,0-12.6,5.7-12.6,12.6
	c0,2.8,0.9,5.5,2.6,7.7l0.1,0.1v20.9L97,118.6z M102.5,117l-5.5-3.9l-5.5,3.9v-8.8l0.7,0.3c1.5,0.6,3.1,0.9,4.8,0.9
	c1.7,0,3.3-0.3,4.8-0.9l0.7-0.3V117z M97,88.6c4.5,0,8.2,3.7,8.2,8.2s-3.7,8.2-8.2,8.2s-8.2-3.7-8.2-8.2
	C88.8,92.3,92.5,88.6,97,88.6z"/>
</svg>
